<?xml version="1.0" encoding="UTF-8" standalone="no"?>
<svg
   xmlns:dc="http://purl.org/dc/elements/1.1/"
   xmlns:cc="http://creativecommons.org/ns#"
   xmlns:rdf="http://www.w3.org/1999/02/22-rdf-syntax-ns#"
   xmlns:svg="http://www.w3.org/2000/svg"
   xmlns="http://www.w3.org/2000/svg"
   xmlns:xlink="http://www.w3.org/1999/xlink"
   xmlns:sodipodi="http://sodipodi.sourceforge.net/DTD/sodipodi-0.dtd"
   xmlns:inkscape="http://www.inkscape.org/namespaces/inkscape"
   width="198.425"
   height="198.425"
   viewBox="0 0 198.425 198.425"
   version="1.1"
   id="svg6"
   sodipodi:docname="logo.svg"
   inkscape:version="0.92.5 (2060ec1f9f, 2020-04-08)">
  <metadata
     id="metadata12">
    <rdf:RDF>
      <cc:Work
         rdf:about="">
        <dc:format>image/svg+xml</dc:format>
        <dc:type
           rdf:resource="http://purl.org/dc/dcmitype/StillImage" />
        <dc:title />
      </cc:Work>
    </rdf:RDF>
  </metadata>
  <defs
     id="defs10">
    <style
       id="style14">.cls-1{fill:url(#linear-gradient);}.cls-2{fill:url(#linear-gradient-2);}.cls-3{stroke-miterlimit:10;fill:url(#linear-gradient-3);stroke:url(#radial-gradient);}.cls-4{opacity:0.1;}.cls-5{fill:url(#radial-gradient-2);}.cls-6{fill:url(#radial-gradient-3);}.cls-7{fill:url(#radial-gradient-4);}.cls-8{fill:url(#radial-gradient-5);}.cls-9{fill:url(#radial-gradient-6);}.cls-10{fill:url(#radial-gradient-7);}.cls-11{fill:url(#radial-gradient-8);}.cls-12{fill:url(#radial-gradient-9);}.cls-13{fill:url(#radial-gradient-10);}.cls-14{fill:url(#radial-gradient-11);}</style>
    <linearGradient
       gradientUnits="userSpaceOnUse"
       gradientTransform="rotate(-29.82,236.0374,201.60452)"
       y2="147.07"
       x2="490.24"
       y1="147.07"
       x1="77.41"
       id="linear-gradient">
      <stop
         id="stop16"
         stop-color="#009444"
         offset="0" />
      <stop
         id="stop18"
         stop-color="#006838"
         offset="1" />
    </linearGradient>
    <linearGradient
       gradientUnits="userSpaceOnUse"
       gradientTransform="translate(-69 144.07) rotate(-29.82)"
       y2="102.41"
       x2="279.1"
       y1="221.5"
       x1="288.39"
       id="linear-gradient-2">
      <stop
         id="stop21"
         stop-color="#009444"
         offset="0" />
      <stop
         id="stop23"
         stop-color="#008941"
         offset="0.17" />
      <stop
         id="stop25"
         stop-color="#006c39"
         offset="0.46" />
      <stop
         id="stop27"
         stop-color="#006838"
         offset="0.49" />
    </linearGradient>
    <linearGradient
       xlink:href="#linear-gradient-2"
       gradientTransform="rotate(-29.82,252.71857,168.86364)"
       y2="140.18"
       x2="236.19"
       y1="178.81"
       x1="239.2"
       id="linear-gradient-3" />
    <radialGradient
       gradientUnits="userSpaceOnUse"
       gradientTransform="rotate(-29.82,252.71857,168.86364)"
       r="169.76"
       cy="167.86"
       cx="238.68"
       id="radial-gradient">
      <stop
         id="stop31"
         stop-color="#009444"
         offset="0" />
      <stop
         id="stop33"
         stop-color="#008941"
         offset="0.03" />
      <stop
         id="stop35"
         stop-color="#006c39"
         offset="0.08" />
      <stop
         id="stop37"
         stop-color="#006838"
         offset="0.08" />
    </radialGradient>
    <radialGradient
       gradientUnits="userSpaceOnUse"
       r="28.44"
       cy="194.94"
       cx="145.4"
       id="radial-gradient-2">
      <stop
         id="stop40"
         stop-color="#009444"
         offset="0" />
      <stop
         id="stop42"
         stop-color="#0b994c"
         offset="0.01" />
      <stop
         id="stop44"
         stop-color="#29a562"
         offset="0.02" />
      <stop
         id="stop46"
         stop-color="#58b985"
         offset="0.04" />
      <stop
         id="stop48"
         stop-color="#9bd5b5"
         offset="0.06" />
      <stop
         id="stop50"
         stop-color="#eef8f3"
         offset="0.08" />
      <stop
         id="stop52"
         stop-color="#fff"
         offset="0.08" />
    </radialGradient>
    <radialGradient
       xlink:href="#radial-gradient-2"
       r="30.38"
       cy="142.02"
       cx="211.94"
       id="radial-gradient-3" />
    <radialGradient
       xlink:href="#radial-gradient-2"
       r="21.34"
       cy="108.46"
       cx="266.9"
       id="radial-gradient-4" />
    <radialGradient
       xlink:href="#radial-gradient-2"
       r="33.77"
       cy="223.15"
       cx="170.3"
       id="radial-gradient-5" />
    <radialGradient
       xlink:href="#radial-gradient-2"
       r="32.53"
       cy="192.97"
       cx="233.24"
       id="radial-gradient-6" />
    <radialGradient
       xlink:href="#radial-gradient-2"
       r="28.31"
       cy="147.41"
       cx="293.21"
       id="radial-gradient-7" />
    <radialGradient
       xlink:href="#radial-gradient-2"
       r="16.54"
       cy="85.78"
       cx="315.17"
       id="radial-gradient-8" />
    <radialGradient
       xlink:href="#radial-gradient-2"
       r="18.49"
       cy="114.43"
       cx="329.91"
       id="radial-gradient-9" />
    <radialGradient
       xlink:href="#radial-gradient-2"
       r="9.89"
       cy="66.19"
       cx="366.98"
       id="radial-gradient-10" />
    <radialGradient
       xlink:href="#radial-gradient-2"
       r="13.52"
       cy="83.62"
       cx="377.79"
       id="radial-gradient-11" />
    <linearGradient
       inkscape:collect="always"
       xlink:href="#linear-gradient-2"
       id="linearGradient163"
       gradientUnits="userSpaceOnUse"
       gradientTransform="rotate(-29.82,236.0374,201.60452)"
       x1="288.39"
       y1="221.5"
       x2="279.1"
       y2="102.41" />
    <radialGradient
       inkscape:collect="always"
       xlink:href="#radial-gradient-2"
       id="radialGradient165"
       gradientUnits="userSpaceOnUse"
       cx="145.4"
       cy="194.94"
       r="28.44" />
  </defs>
  <sodipodi:namedview
     pagecolor="#ffffff"
     bordercolor="#666666"
     borderopacity="1"
     objecttolerance="10"
     gridtolerance="10"
     guidetolerance="10"
     inkscape:pageopacity="0"
     inkscape:pageshadow="2"
     inkscape:window-width="1200"
     inkscape:window-height="1856"
     id="namedview8"
     showgrid="false"
     inkscape:zoom="4.757465"
     inkscape:cx="67.813412"
     inkscape:cy="93.430919"
     inkscape:window-x="1200"
     inkscape:window-y="27"
     inkscape:window-maximized="1"
     inkscape:current-layer="svg6" />
  <path
     d="M39.425 133.768v-69.11l60-34.561 60 34.561v69.11l-60 34.56z"
     id="path2"
     fill="#FFF" />
  <path
     d="M98.925 32.983l57.5 33.119v66.221l-57.5 33.119-57.5-33.119V66.102l57.5-33.119zm0-5.771l-62.5 36v72.001l62.5 36 62.5-36V63.212l-62.5-36z"
     id="path4"
     style="fill:#008f43;fill-opacity:1"
     fill="#050507" />
  <g
     id="g182"
     transform="matrix(0.76739184,0.24806206,-0.24441777,0.81810358,55.544352,-18.795558)">
    <g
       transform="matrix(0.19231991,-0.03425821,-0.04475851,0.25417429,84.005582,107.30357)"
       id="g147">
      <path
         style="fill:url(#linear-gradient)"
         inkscape:connector-curvature="0"
         class="cls-1"
         d="m 212.18,165 c 28.5,-26.7 58.74,-46.33 92.33,-62.13 6.94,-4 15.38,-5.35 22.32,-9.33 36,-19.47 72.95,-37.21 113,-47.57 -12.61,-10.81 -145.66,0.51 -235.9,70.7 C 125.33,177.84 90,265.75 90,265.75 l 1.9,-0.62 c 35.73,-29.33 67.85,-63.7 105.58,-91.64 5.16,-2.99 10,-4.61 14.7,-8.49 z"
         transform="translate(-43.49,-42.46)"
         id="path68" />
      <path
         style="fill:url(#linearGradient163)"
         inkscape:connector-curvature="0"
         class="cls-2"
         d="m 326.83,93.57 c -6.94,4 -15.38,5.35 -22.32,9.33 -33.59,15.8 -63.83,35.43 -92.33,62.13 -6.55,4.22 -9.54,5.47 -14.75,8.46 -37.73,27.94 -69.85,62.31 -105.58,91.64 16.15,-5.29 131.92,-43 167.53,-51.7 90.75,-22 181.09,-166.75 181.09,-166.75 A 3.3,3.3 0 0 0 439.84,46 C 399.78,56.36 362.81,74.1 326.83,93.57 Z"
         transform="translate(-43.49,-42.46)"
         id="path70" />
      <path
         style="fill:url(#linear-gradient-3);stroke:url(#radial-gradient);stroke-miterlimit:10"
         inkscape:connector-curvature="0"
         class="cls-3"
         d="m 44.46,311.92 c -7.74,-11.83 82.33,-99.72 198.68,-171.3 96,-59 195.25,-98 196.7,-95.2 0.45,0.87 -7.69,7.5 -17.66,11.4 a 52,52 0 0 1 -7.37,2.29 c -9.76,2.31 -78.77,26.28 -169.24,84.66 -39.23,25.32 -65.07,45.86 -85,61.7 -23.94,19 -35.81,30.08 -45.91,40.59 -10.1,10.51 -18,18.67 -27.66,30.77 -5.39,6.73 -11.37,12.95 -16.53,19.86 -7.91,10.6 -12.47,18.54 -19.34,18.22 -2.77,-0.12 -5.77,-1.6 -6.67,-2.99 z"
         transform="translate(-43.49,-42.46)"
         id="path72" />
      <g
         style="opacity:0.1"
         class="cls-4"
         id="g94">
        <path
           style="fill:url(#radialGradient165)"
           inkscape:connector-curvature="0"
           class="cls-5"
           d="m 122.71,228 a 35.31,35.31 0 0 1 7.17,-18.95 c 4.17,-5.42 9.55,-9.51 13.64,-14.72 4.09,-5.21 7.37,-11.06 10.95,-16.71 3.58,-5.65 7.57,-11.18 13,-15.12 -5.35,4.07 -9.2,9.68 -12.6,15.38 -3.4,5.7 -6.5,11.69 -10.58,17.07 -4.08,5.38 -9.37,9.69 -13.22,15 a 33.39,33.39 0 0 0 -6.38,18.16 z"
           transform="translate(-43.49,-42.46)"
           id="path74" />
        <path
           style="fill:url(#radial-gradient-3)"
           inkscape:connector-curvature="0"
           class="cls-6"
           d="m 189.19,178.28 a 29.39,29.39 0 0 1 5.54,-21.3 30.84,30.84 0 0 1 3.76,-4.15 c 1.4,-1.26 2.93,-2.32 4.37,-3.39 a 16.18,16.18 0 0 0 3.79,-3.63 15.51,15.51 0 0 0 1.95,-4.89 51.78,51.78 0 0 1 9.85,-19.52 50.58,50.58 0 0 1 7.75,-7.73 c 1.42,-1.16 2.92,-2.19 4.32,-3.37 a 15.35,15.35 0 0 0 3.6,-4.06 15.43,15.43 0 0 1 -3.52,4.16 c -1.37,1.21 -2.86,2.28 -4.24,3.46 a 49.86,49.86 0 0 0 -7.52,7.85 51.11,51.11 0 0 0 -9.27,19.46 16.45,16.45 0 0 1 -2,5.26 17.58,17.58 0 0 1 -4,4 c -1.46,1.13 -2.91,2.18 -4.2,3.4 a 28.29,28.29 0 0 0 -3.47,4 27.64,27.64 0 0 0 -4.73,20.17 z"
           transform="translate(-43.49,-42.46)"
           id="path76" />
        <path
           style="fill:url(#radial-gradient-4)"
           inkscape:connector-curvature="0"
           class="cls-7"
           d="m 254.35,135.56 a 40.59,40.59 0 0 1 0.29,-15.57 28.23,28.23 0 0 1 2.79,-7.32 27.12,27.12 0 0 1 4.79,-6.15 c 1.8,-1.83 3.69,-3.54 5.28,-5.49 a 23.2,23.2 0 0 0 3.65,-6.59 45.83,45.83 0 0 1 3.11,-7 11.66,11.66 0 0 1 5.56,-5.12 11.53,11.53 0 0 0 -5.35,5.25 47.26,47.26 0 0 0 -2.85,7.07 23.87,23.87 0 0 1 -3.53,6.88 c -1.57,2.07 -3.43,3.86 -5.15,5.72 a 26.12,26.12 0 0 0 -4.41,6.05 27,27 0 0 0 -2.42,7 38.86,38.86 0 0 0 0.2,14.89 z"
           transform="translate(-43.49,-42.46)"
           id="path78" />
        <path
           style="fill:url(#radial-gradient-5)"
           inkscape:connector-curvature="0"
           class="cls-8"
           d="m 124.22,229.24 c 3.48,1.47 7.47,1.17 11.29,0.28 3.82,-0.89 7.65,-2.28 11.65,-3.16 a 34.88,34.88 0 0 1 6.1,-0.78 49.72,49.72 0 0 1 6.11,0.16 c 4,0.32 8,1 12,1.41 a 45.3,45.3 0 0 0 11.92,0 42.29,42.29 0 0 0 11.32,-3.79 c 3.63,-1.71 7.17,-3.65 10.87,-5.25 a 33.69,33.69 0 0 1 11.64,-3 33.47,33.47 0 0 0 -11.54,3.26 c -3.65,1.66 -7.14,3.67 -10.76,5.47 a 42.35,42.35 0 0 1 -11.41,4.08 46.14,46.14 0 0 1 -12.14,0.26 c -4,-0.34 -8,-0.92 -12,-1.15 a 49.23,49.23 0 0 0 -5.95,0 33.77,33.77 0 0 0 -5.83,0.87 c -3.85,0.93 -7.6,2.4 -11.58,3.4 a 27.94,27.94 0 0 1 -6.16,0.93 16.24,16.24 0 0 1 -6.29,-1.06 z"
           transform="translate(-43.49,-42.46)"
           id="path80" />
        <path
           style="fill:url(#radial-gradient-6)"
           inkscape:connector-curvature="0"
           class="cls-9"
           d="m 191.4,178.51 c 3,7.1 10,12.29 17.69,13.77 a 28.08,28.08 0 0 0 2.9,0.4 23.71,23.71 0 0 0 2.92,0 34.6,34.6 0 0 0 5.86,-1 8.89,8.89 0 0 1 3.22,-0.11 7,7 0 0 1 2.95,1.36 c 1.64,1.25 3.18,2.46 4.84,3.6 a 83.82,83.82 0 0 0 10.3,6.18 51.33,51.33 0 0 0 5.45,2.49 13.61,13.61 0 0 0 5.8,1 32.52,32.52 0 0 0 5.84,-1.3 l 5.82,-1.6 11.64,-3.3 -11.57,3.46 -5.79,1.73 a 32.34,32.34 0 0 1 -5.9,1.42 14,14 0 0 1 -6.05,-0.86 55.13,55.13 0 0 1 -5.58,-2.4 87.84,87.84 0 0 1 -10.53,-6 c -1.67,-1.11 -3.33,-2.35 -4.92,-3.51 a 6,6 0 0 0 -2.5,-1.11 7.76,7.76 0 0 0 -2.78,0.17 35.41,35.41 0 0 1 -6,1.15 26.86,26.86 0 0 1 -3.11,0.07 26.4,26.4 0 0 1 -3.08,-0.36 26.13,26.13 0 0 1 -19.25,-14.43 z"
           transform="translate(-43.49,-42.46)"
           id="path82" />
        <path
           style="fill:url(#radial-gradient-7)"
           inkscape:connector-curvature="0"
           class="cls-10"
           d="m 256.62,136.61 a 9.2,9.2 0 0 0 4.61,6.31 13.69,13.69 0 0 0 3.86,1.57 c 0.34,0.07 0.69,0.14 1,0.19 0.31,0.05 0.64,0.08 1.1,0.14 a 10.72,10.72 0 0 1 2.32,0.65 84.12,84.12 0 0 1 8,4.17 27.37,27.37 0 0 0 3.94,1.82 6.12,6.12 0 0 0 3.92,0.33 l 0.34,-0.12 0.26,0.21 a 24.16,24.16 0 0 0 5,3 21.5,21.5 0 0 0 5.58,1.6 50.15,50.15 0 0 0 11.8,-0.15 87.86,87.86 0 0 1 11.92,-0.55 6.56,6.56 0 0 0 2.76,-0.9 c 0.88,-0.46 1.73,-1 2.59,-1.46 a 22.9,22.9 0 0 1 2.66,-1.35 5.14,5.14 0 0 1 1.44,-0.4 1.57,1.57 0 0 1 1.37,0.43 1.57,1.57 0 0 0 -1.37,-0.41 5.51,5.51 0 0 0 -1.42,0.42 25.28,25.28 0 0 0 -2.62,1.4 c -0.86,0.51 -1.7,1 -2.58,1.51 a 6.59,6.59 0 0 1 -2.84,1 88.79,88.79 0 0 0 -11.85,0.89 51,51 0 0 1 -12,0.49 22.22,22.22 0 0 1 -5.88,-1.51 24.93,24.93 0 0 1 -5.28,-3 l 0.59,0.09 a 7.33,7.33 0 0 1 -4.78,-0.23 30.19,30.19 0 0 1 -4.18,-1.83 82.52,82.52 0 0 0 -7.86,-3.95 9.27,9.27 0 0 0 -2,-0.52 c -0.28,0 -0.75,-0.06 -1.11,-0.11 -0.36,-0.05 -0.78,-0.12 -1.17,-0.2 a 15.05,15.05 0 0 1 -4.4,-1.66 12.57,12.57 0 0 1 -3.64,-3.07 9.84,9.84 0 0 1 -2,-4.44 z"
           transform="translate(-43.49,-42.46)"
           id="path84" />
        <path
           style="fill:url(#radial-gradient-8)"
           inkscape:connector-curvature="0"
           class="cls-11"
           d="m 302.87,105.25 a 12.23,12.23 0 0 1 -0.58,-3.16 14.82,14.82 0 0 1 0.26,-3.13 23.56,23.56 0 0 1 2.06,-5.71 c 0.88,-1.79 1.9,-3.49 2.9,-5.17 1,-1.68 2,-3.36 3.1,-5 a 48.19,48.19 0 0 1 7.45,-9.15 40.53,40.53 0 0 1 9.62,-6.73 40.55,40.55 0 0 0 -9.27,7.08 47.67,47.67 0 0 0 -7,9.33 c -1,1.67 -1.93,3.38 -2.86,5.1 -0.93,1.72 -1.86,3.43 -2.63,5.19 a 22.11,22.11 0 0 0 -1.7,5.38 13,13 0 0 0 -0.11,2.71 10.09,10.09 0 0 0 0.59,2.58 z"
           transform="translate(-43.49,-42.46)"
           id="path86" />
        <path
           style="fill:url(#radial-gradient-9)"
           inkscape:connector-curvature="0"
           class="cls-12"
           d="m 306.4,107.16 a 9.23,9.23 0 0 0 5,3.16 c 2,0.63 4.25,1 6.44,1.54 a 17.18,17.18 0 0 1 6.25,2.86 53,53 0 0 0 5.38,3.81 c 3.81,2 8.46,2.19 12.73,1.25 4.27,-0.94 8.36,-2.9 12.34,-4.84 -3.91,2.08 -7.87,4.2 -12.22,5.33 -4.35,1.13 -9.12,1.2 -13.3,-0.85 a 52.59,52.59 0 0 1 -5.64,-3.67 15.66,15.66 0 0 0 -5.89,-2.43 c -2.12,-0.48 -4.33,-0.72 -6.57,-1.31 a 11.14,11.14 0 0 1 -6.15,-3.64 z"
           transform="translate(-43.49,-42.46)"
           id="path88" />
        <path
           style="fill:url(#radial-gradient-10)"
           inkscape:connector-curvature="0"
           class="cls-13"
           d="m 357.73,76.67 a 6.13,6.13 0 0 1 1.39,-3.67 25.87,25.87 0 0 1 2.41,-2.56 36.9,36.9 0 0 0 4.2,-5.19 33.89,33.89 0 0 1 4.35,-5.3 12,12 0 0 1 5.92,-3.27 11.76,11.76 0 0 0 -5.58,3.6 33.41,33.41 0 0 0 -3.88,5.5 37.65,37.65 0 0 1 -3.94,5.67 24.63,24.63 0 0 0 -2.05,2.55 4.21,4.21 0 0 0 -0.82,2.61 z"
           transform="translate(-43.49,-42.46)"
           id="path90" />
        <path
           style="fill:url(#radial-gradient-11)"
           inkscape:connector-curvature="0"
           class="cls-14"
           d="m 360.68,80 a 4.79,4.79 0 0 0 3.38,1.85 c 1.47,0.29 3.06,0.34 4.7,0.62 3.26,0.6 6.15,2 9.16,2.76 A 23.39,23.39 0 0 0 396,82.39 23.91,23.91 0 0 1 377.69,86.17 c -3.16,-0.64 -6.13,-1.86 -9.16,-2.24 -1.49,-0.19 -3.09,-0.15 -4.75,-0.38 A 8.91,8.91 0 0 1 361.25,82.87 5.47,5.47 0 0 1 359,81.09 Z"
           transform="translate(-43.49,-42.46)"
           id="path92" />
      </g>
    </g>
  </g>
  <text
     xml:space="preserve"
     style="font-style:normal;font-weight:normal;font-size:40px;line-height:1.25;font-family:sans-serif;letter-spacing:0px;word-spacing:0px;fill:#000000;fill-opacity:1;stroke:none"
     x="41.998566"
     y="88.934914"
     id="text186"><tspan
       sodipodi:role="line"
       id="tspan184"
       x="41.998566"
       y="88.934914"
       style="font-size:29.33333397px">LORALS</tspan></text>
</svg>
