<svg id="Layer_1" data-name="Layer 1" xmlns="http://www.w3.org/2000/svg" viewBox="0 0 465.72 579.66"><defs><style>.cls-1,.cls-22,.cls-27{fill:none;}.cls-1{stroke:#333;}.cls-1,.cls-2,.cls-22,.cls-27,.cls-5{stroke-miterlimit:10;}.cls-2{fill:#9ba53e;}.cls-2,.cls-27,.cls-5{stroke:#231f20;}.cls-3{font-size:12px;}.cls-23,.cls-3{fill:#010101;}.cls-24,.cls-3{font-family:MyriadPro-Regular, Myriad Pro;}.cls-4{letter-spacing:0em;}.cls-5{fill:#a8469a;}.cls-6{letter-spacing:0.01em;}.cls-7{letter-spacing:-0.09em;}.cls-8{letter-spacing:-0.01em;}.cls-9{letter-spacing:0em;}.cls-10{letter-spacing:0em;}.cls-11{letter-spacing:-0.01em;}.cls-12{letter-spacing:0.01em;}.cls-13{letter-spacing:0em;}.cls-14{letter-spacing:0em;}.cls-15{letter-spacing:0.03em;}.cls-16{letter-spacing:0em;}.cls-17{letter-spacing:0.64em;}.cls-18{letter-spacing:-0.05em;}.cls-19{letter-spacing:-0.01em;}.cls-20{letter-spacing:0em;}.cls-21{letter-spacing:-0.01em;}.cls-22{stroke:#010101;}.cls-24{font-size:8px;}.cls-24,.cls-28{fill:#231f20;}.cls-25{letter-spacing:0em;}.cls-26{letter-spacing:0em;}.cls-29{letter-spacing:-0.01em;}.cls-30{letter-spacing:-0.01em;}.cls-31{letter-spacing:-0.01em;}.cls-32{letter-spacing:-0.01em;}.cls-33{fill:#f9b47a;}</style></defs><title>pipeline_analysis</title><line class="cls-1" x1="73.61" y1="53.51" x2="167.81" y2="53.51"/><rect class="cls-2" x="48.67" y="47.85" width="47.14" height="10.8"/><rect class="cls-2" x="107.08" y="47.85" width="24.83" height="10.8"/><rect class="cls-2" x="140.13" y="47.85" width="52.61" height="10.8"/><text class="cls-3" transform="translate(47.84 27.09)">GENE EXPRESSION (qua<tspan class="cls-4" x="117.47" y="0">n</tspan><tspan x="124.08" y="0">t mode)</tspan></text><line class="cls-1" x1="73.79" y1="70.51" x2="198.74" y2="70.51"/><rect class="cls-5" x="48.85" y="64.85" width="47.14" height="10.8"/><rect class="cls-5" x="107.27" y="64.85" width="24.83" height="10.8"/><rect class="cls-5" x="140.31" y="64.85" width="26.12" height="10.8"/><text class="cls-3" transform="translate(12.06 58.51)"><tspan class="cls-6">G</tspan><tspan x="7.81" y="0">ene 1</tspan><tspan class="cls-6" x="0" y="14.4">G</tspan><tspan x="7.81" y="14.4">ene 2</tspan><tspan x="0" y="28.8">...</tspan><tspan x="0" y="43.2">...</tspan></text><rect class="cls-5" x="175.77" y="65.11" width="26.12" height="10.8"/><text class="cls-3" transform="translate(201.45 44.36)">REF ALLELE<tspan x="19.21" y="14.4">122</tspan><tspan x="22.29" y="28.8">78</tspan><tspan x="24.72" y="43.2">...</tspan><tspan x="24.72" y="57.6">...</tspan></text><text class="cls-3" transform="translate(275.21 44.36)">A<tspan class="cls-7" x="7.34" y="0">L</tspan><tspan x="11.95" y="0">T ALLELE</tspan><tspan x="19.07" y="14.4">120</tspan><tspan x="19.07" y="28.8">150</tspan><tspan x="24.58" y="43.2">...</tspan><tspan x="24.58" y="57.6">...</tspan></text><text class="cls-3" transform="translate(360.54 58.65)">Binomial <tspan class="cls-8" x="46.54" y="0">t</tspan><tspan class="cls-9" x="50.44" y="0">est</tspan><tspan x="-4.45" y="14.4">FDR </tspan><tspan class="cls-8" x="18.38" y="14.4">c</tspan><tspan x="23.69" y="14.4">o</tspan><tspan class="cls-10" x="30.28" y="14.4">r</tspan><tspan class="cls-11" x="34.25" y="14.4">r</tspan><tspan class="cls-9" x="38.05" y="14.4">e</tspan><tspan class="cls-12" x="44.06" y="14.4">c</tspan><tspan class="cls-13" x="49.6" y="14.4">tion</tspan></text><line class="cls-1" x1="72.81" y1="164.63" x2="167.01" y2="164.63"/><rect class="cls-2" x="47.87" y="158.97" width="47.14" height="10.8"/><rect class="cls-2" x="106.29" y="158.97" width="24.83" height="10.8"/><rect class="cls-2" x="139.33" y="158.97" width="52.61" height="10.8"/><text class="cls-3" transform="translate(47.85 134.21)">T<tspan class="cls-14" x="5.96" y="0">R</tspan><tspan class="cls-9" x="12.48" y="0">ANSCRIPT STRU</tspan><tspan class="cls-15" x="90.91" y="0">C</tspan><tspan x="98.21" y="0">TURE (qua</tspan><tspan class="cls-16" x="149.4" y="0">n</tspan><tspan x="156.01" y="0">t mode)</tspan></text><line class="cls-1" x1="72.99" y1="213.63" x2="197.94" y2="213.63"/><rect class="cls-5" x="48.06" y="207.97" width="47.14" height="10.8"/><rect class="cls-5" x="106.47" y="207.97" width="24.83" height="10.8"/><rect class="cls-5" x="139.51" y="207.97" width="26.12" height="10.8"/><text class="cls-3" transform="translate(0 165.87)"><tspan class="cls-6">G</tspan><tspan x="7.81" y="0">ene 1</tspan><tspan class="cls-17" x="0" y="14.4">	</tspan><tspan class="cls-18" x="10.18" y="14.4">T</tspan><tspan class="cls-19" x="15.6" y="14.4">r</tspan><tspan x="19.46" y="14.4">ansc</tspan><tspan class="cls-20" x="42.04" y="14.4">r</tspan><tspan x="46.01" y="14.4">ipt 1</tspan><tspan class="cls-17" x="0" y="28.8">	</tspan><tspan class="cls-18" x="10.18" y="28.8">T</tspan><tspan class="cls-19" x="15.6" y="28.8">r</tspan><tspan x="19.46" y="28.8">ansc</tspan><tspan class="cls-20" x="42.04" y="28.8">r</tspan><tspan x="46.01" y="28.8">ipt 2</tspan><tspan class="cls-6" x="0" y="51.6">G</tspan><tspan x="7.81" y="51.6">ene 2</tspan><tspan class="cls-17" x="0" y="66">	</tspan><tspan class="cls-18" x="10.18" y="66">T</tspan><tspan class="cls-19" x="15.6" y="66">r</tspan><tspan x="19.46" y="66">ansc</tspan><tspan class="cls-20" x="42.04" y="66">r</tspan><tspan x="46.01" y="66">ipt 1</tspan><tspan class="cls-17" x="0" y="80.4">	</tspan><tspan class="cls-18" x="10.18" y="80.4">T</tspan><tspan class="cls-19" x="15.6" y="80.4">r</tspan><tspan x="19.46" y="80.4">ansc</tspan><tspan class="cls-20" x="42.04" y="80.4">r</tspan><tspan x="46.01" y="80.4">ipt 2</tspan><tspan class="cls-17" x="0" y="94.8">	</tspan><tspan class="cls-18" x="10.18" y="94.8">T</tspan><tspan class="cls-19" x="15.6" y="94.8">r</tspan><tspan x="19.46" y="94.8">asc</tspan><tspan class="cls-10" x="35.38" y="94.8">r</tspan><tspan class="cls-9" x="39.35" y="94.8">ipt 3</tspan><tspan x="0" y="109.2">...</tspan><tspan x="0" y="123.6">...</tspan></text><rect class="cls-5" x="174.98" y="208.23" width="26.12" height="10.8"/><text class="cls-3" transform="translate(200.65 155.49)">REF ALLELE<tspan x="22.29" y="26.4">47</tspan><tspan x="22.29" y="40.8">22</tspan><tspan x="19.21" y="74.4">112</tspan><tspan x="22.29" y="88.8">75</tspan><tspan x="22.29" y="103.2">84</tspan><tspan x="24.72" y="117.6">...</tspan><tspan x="24.72" y="132">...</tspan></text><text class="cls-3" transform="translate(274.41 155.49)">A<tspan class="cls-7" x="7.34" y="0">L</tspan><tspan x="11.95" y="0">T ALLELE</tspan><tspan x="22.15" y="26.4">48</tspan><tspan x="22.15" y="40.8">23</tspan><tspan x="22.15" y="74.4">85</tspan><tspan x="22.15" y="88.8">11</tspan><tspan x="19.07" y="103.2">200</tspan><tspan x="24.58" y="117.6">...</tspan><tspan x="24.58" y="132">...</tspan></text><text class="cls-3" transform="translate(355.62 213.37)">Chi-squa<tspan class="cls-21" x="44.02" y="0">r</tspan><tspan x="47.82" y="0">e </tspan><tspan class="cls-8" x="56.38" y="0">t</tspan><tspan class="cls-9" x="60.27" y="0">est</tspan><tspan x="0.47" y="14.4">FDR </tspan><tspan class="cls-8" x="23.3" y="14.4">c</tspan><tspan x="28.61" y="14.4">o</tspan><tspan class="cls-10" x="35.2" y="14.4">r</tspan><tspan class="cls-11" x="39.17" y="14.4">r</tspan><tspan class="cls-9" x="42.97" y="14.4">e</tspan><tspan class="cls-12" x="48.98" y="14.4">c</tspan><tspan class="cls-13" x="54.52" y="14.4">tion</tspan></text><rect class="cls-2" x="95.02" y="172.96" width="45.99" height="10.54"/><rect class="cls-2" x="141.02" y="172.96" width="51.34" height="10.54"/><rect class="cls-2" x="70.85" y="185.96" width="45.99" height="10.54"/><rect class="cls-2" x="141.02" y="185.96" width="51.34" height="10.54"/><rect class="cls-2" x="116.96" y="185.96" width="24.23" height="10.54"/><rect class="cls-5" x="128.75" y="223.52" width="45.99" height="10.54"/><rect class="cls-5" x="174.75" y="223.52" width="24.83" height="10.54"/><rect class="cls-5" x="102.44" y="237" width="45.99" height="10.54"/><rect class="cls-5" x="148.43" y="237" width="24.83" height="10.54"/><rect class="cls-5" x="173.46" y="237" width="26.12" height="10.54"/><rect class="cls-5" x="147.14" y="250.79" width="26.12" height="10.54"/><rect class="cls-5" x="173.46" y="250.79" width="26.12" height="10.54"/><path class="cls-22" d="M363.21,302.11c-.53-4.1-5.12-36.24-25.34-42.79l-.25-.08" transform="translate(-8.38 -4.25)"/><path class="cls-23" d="M331.68,258.19a30.46,30.46,0,0,0,9.28-3.08l-2.58,4.35.81,5A30.32,30.32,0,0,0,331.68,258.19Z" transform="translate(-8.38 -4.25)"/><text class="cls-24" transform="translate(341.62 305.75)">minimum <tspan x="-20.12" y="9.6">10 </tspan><tspan class="cls-11" x="-10.22" y="9.6">r</tspan><tspan x="-7.68" y="9.6">eads per t</tspan><tspan class="cls-19" x="25.08" y="9.6">r</tspan><tspan class="cls-25" x="27.66" y="9.6">ansc</tspan><tspan class="cls-26" x="42.7" y="9.6">r</tspan><tspan x="45.35" y="9.6">ipt</tspan></text><path class="cls-27" d="M385.17,154.58c-.45,3.74-2.34,15-11.82,23.65s-23.2,11.44-36.49,8.06" transform="translate(-8.38 -4.25)"/><path class="cls-28" d="M331.11,184.42a30.22,30.22,0,0,0,9.59-2l-3.08,4,.21,5.05A30.33,30.33,0,0,0,331.11,184.42Z" transform="translate(-8.38 -4.25)"/><text class="cls-24" transform="translate(365.4 136.61)">minimum <tspan x="-12.59" y="9.6">20 </tspan><tspan class="cls-11" x="-2.68" y="9.6">r</tspan><tspan x="-0.15" y="9.6">eads per gene</tspan></text><path class="cls-27" d="M387.36,24.66c-.45,3.75-2.34,15.06-11.82,23.65s-23.2,11.45-36.49,8.07" transform="translate(-8.38 -4.25)"/><path class="cls-28" d="M333.3,54.51a30.22,30.22,0,0,0,9.59-2l-3.08,4,.21,5A30.14,30.14,0,0,0,333.3,54.51Z" transform="translate(-8.38 -4.25)"/><text class="cls-24" transform="translate(367.59 6.7)">minimum <tspan x="-12.59" y="9.6">20 </tspan><tspan class="cls-11" x="-2.68" y="9.6">r</tspan><tspan x="-0.15" y="9.6">eads per gene</tspan></text><line class="cls-1" x1="72.79" y1="381.59" x2="166.98" y2="381.59"/><rect class="cls-2" x="47.85" y="375.93" width="47.14" height="10.8"/><rect class="cls-2" x="106.26" y="375.93" width="24.83" height="10.8"/><rect class="cls-2" x="139.31" y="375.93" width="52.61" height="10.8"/><text class="cls-3" transform="translate(47.84 355.17)">GENE EXPRESSION (SNV le<tspan class="cls-29" x="130.21" y="0">v</tspan><tspan x="135.86" y="0">el)</tspan></text><line class="cls-1" x1="72.97" y1="398.59" x2="197.92" y2="398.59"/><rect class="cls-5" x="48.03" y="392.93" width="47.14" height="10.8"/><rect class="cls-5" x="106.45" y="392.93" width="24.83" height="10.8"/><rect class="cls-5" x="139.49" y="392.93" width="26.12" height="10.8"/><text class="cls-3" transform="translate(11.24 386.59)">SNV 1<tspan x="0" y="14.4">SNV 2</tspan><tspan x="0" y="28.8">...</tspan><tspan x="0" y="43.2">...</tspan></text><rect class="cls-5" x="174.95" y="393.19" width="26.12" height="10.8"/><text class="cls-3" transform="translate(200.63 372.45)">REF ALLELE<tspan x="19.21" y="14.4">122</tspan><tspan x="22.29" y="28.8">78</tspan><tspan x="24.72" y="43.2">...</tspan><tspan x="24.72" y="57.6">...</tspan></text><text class="cls-3" transform="translate(274.39 372.45)">A<tspan class="cls-7" x="7.34" y="0">L</tspan><tspan x="11.95" y="0">T ALLELE</tspan><tspan x="19.07" y="14.4">120</tspan><tspan x="19.07" y="28.8">150</tspan><tspan x="24.58" y="43.2">...</tspan><tspan x="24.58" y="57.6">...</tspan></text><text class="cls-3" transform="translate(359.72 386.74)">Binomial <tspan class="cls-8" x="46.54" y="0">t</tspan><tspan class="cls-9" x="50.44" y="0">est</tspan><tspan x="-4.45" y="14.4">FDR </tspan><tspan class="cls-8" x="18.38" y="14.4">c</tspan><tspan x="23.69" y="14.4">o</tspan><tspan class="cls-10" x="30.28" y="14.4">r</tspan><tspan class="cls-11" x="34.25" y="14.4">r</tspan><tspan class="cls-9" x="38.05" y="14.4">e</tspan><tspan class="cls-12" x="44.06" y="14.4">c</tspan><tspan class="cls-13" x="49.6" y="14.4">tion</tspan></text><text class="cls-3" transform="translate(47.85 462.3)">T<tspan class="cls-14" x="5.96" y="0">R</tspan><tspan class="cls-9" x="12.48" y="0">ANSCRIPT STRU</tspan><tspan class="cls-15" x="90.91" y="0">C</tspan><tspan x="98.21" y="0">TURE (length mode)</tspan></text><path class="cls-27" d="M386.54,352.75c-.46,3.74-2.34,15.05-11.82,23.65s-23.2,11.44-36.5,8.06" transform="translate(-8.38 -4.25)"/><path class="cls-28" d="M332.48,382.59a30.1,30.1,0,0,0,9.58-2l-3.07,4,.21,5.05A30.33,30.33,0,0,0,332.48,382.59Z" transform="translate(-8.38 -4.25)"/><text class="cls-24" transform="translate(366.77 334.78)">minimum <tspan x="-12.59" y="9.6">20 </tspan><tspan class="cls-11" x="-2.68" y="9.6">r</tspan><tspan x="-0.15" y="9.6">eads per gene</tspan></text><line class="cls-1" x1="73.03" y1="491.92" x2="167.23" y2="491.92"/><rect class="cls-2" x="48.09" y="486.26" width="47.14" height="10.8"/><rect class="cls-2" x="106.5" y="486.26" width="24.83" height="10.8"/><rect class="cls-2" x="139.55" y="486.26" width="52.61" height="10.8"/><line class="cls-1" x1="73.21" y1="521.92" x2="198.16" y2="521.92"/><rect class="cls-5" x="48.27" y="516.26" width="47.14" height="10.8"/><rect class="cls-5" x="106.69" y="516.26" width="24.83" height="10.8"/><rect class="cls-5" x="139.73" y="516.26" width="26.12" height="10.8"/><text class="cls-3" transform="translate(11.48 496.92)">SNV 1<tspan x="0" y="28.8">SNV 2</tspan><tspan x="0" y="43.2">...</tspan><tspan x="0" y="57.6">...</tspan></text><rect class="cls-5" x="175.19" y="516.51" width="26.12" height="10.8"/><text class="cls-3" transform="translate(200.87 476.77)">REF ALLELE</text><text class="cls-3" transform="translate(274.63 476.77)">A<tspan class="cls-7" x="7.34" y="0">L</tspan><tspan x="11.95" y="0">T ALLELE</tspan></text><text class="cls-3" transform="translate(337.37 491.06)">Kolmogo<tspan class="cls-21" x="45.82" y="0">r</tspan><tspan class="cls-30" x="49.62" y="0">o</tspan><tspan class="cls-16" x="56.12" y="0">v</tspan><tspan class="cls-13" x="61.85" y="0">-Smi</tspan><tspan class="cls-10" x="84.26" y="0">r</tspan><tspan class="cls-13" x="88.24" y="0">n</tspan><tspan class="cls-31" x="94.9" y="0">o</tspan><tspan class="cls-9" x="101.4" y="0">v </tspan><tspan class="cls-32" x="109.72" y="0">t</tspan><tspan x="113.61" y="0">est</tspan><tspan x="27.14" y="14.4">FDR </tspan><tspan class="cls-8" x="49.97" y="14.4">c</tspan><tspan x="55.28" y="14.4">o</tspan><tspan class="cls-10" x="61.87" y="14.4">r</tspan><tspan class="cls-11" x="65.84" y="14.4">r</tspan><tspan class="cls-9" x="69.64" y="14.4">e</tspan><tspan class="cls-12" x="75.65" y="14.4">c</tspan><tspan class="cls-13" x="81.19" y="14.4">tion</tspan></text><path class="cls-33" d="M214.15,504.29c3.08,1.19,6.59-.67,8.67-3.24s3.2-5.76,4.91-8.58,4.38-5.46,7.67-5.6c2.92-.13,5.58,1.73,7.44,4s3.17,4.9,4.94,7.21a21.88,21.88,0,0,0,9.71,7.13" transform="translate(-8.38 -4.25)"/><path class="cls-33" d="M287.65,503.2c1.18-2.68,2.1-6,4.87-6.93,1.89-.63,4,.2,5.58,1.37s3,2.67,4.68,3.69a2.65,2.65,0,0,0,1.79.48,2.83,2.83,0,0,0,1.16-.61,16.64,16.64,0,0,0,4.9-6.16c1.2-2.59,1.95-5.76,4.47-7.08s6,.05,7.94,2.28,3,5.08,4.55,7.63,3.87,4.95,6.83,5.16" transform="translate(-8.38 -4.25)"/><path class="cls-33" d="M223.52,532.36c3.75.39,7.46-1.6,9.93-4.45s3.86-6.47,4.92-10.09c.67-2.32,1.51-5,3.78-5.84.23,6.21,4,11.66,7.57,16.73,1.45,2,3.36,4.3,5.85,4.11" transform="translate(-8.38 -4.25)"/><path class="cls-33" d="M304.86,532.36c3.75.39,7.46-1.6,9.92-4.45a26.33,26.33,0,0,0,4.92-10.09c.68-2.32,1.52-5,3.78-5.84.24,6.21,4,11.66,7.58,16.73,1.45,2,3.36,4.3,5.85,4.11" transform="translate(-8.38 -4.25)"/><path class="cls-22" d="M377,564.43c-.54-4.1-5.12-36.25-25.34-42.8l-.25-.08" transform="translate(-8.38 -4.25)"/><path class="cls-23" d="M345.47,520.51a30.43,30.43,0,0,0,9.29-3.08l-2.58,4.35.81,5A30.16,30.16,0,0,0,345.47,520.51Z" transform="translate(-8.38 -4.25)"/><text class="cls-24" transform="translate(355.42 568.06)">minimum <tspan x="-10.96" y="9.6">50 </tspan><tspan class="cls-11" x="-1.06" y="9.6">r</tspan><tspan x="1.48" y="9.6">eads per SNV</tspan></text><text class="cls-3" transform="translate(243.1 548.02)"><tspan class="cls-20">R</tspan><tspan x="6.5" y="0">ead lengths</tspan></text></svg>